<svg width="60" height="61" viewBox="0 0 60 61" fill="none" xmlns="http://www.w3.org/2000/svg">
<g clip-path="url(#clip0_192_2782)">
<path d="M0 0.03125H60V60.0312H0V0.03125Z" fill="#F0DB4F"/>
<path d="M55.0894 45.7213C54.6502 42.9836 52.8651 40.6852 47.578 38.5407C45.7415 37.6966 43.694 37.0921 43.0837 35.7004C42.867 34.8905 42.8385 34.4342 42.9753 33.9437C43.3689 32.3525 45.2681 31.8563 46.7738 32.3125C47.7434 32.6376 48.6617 33.3848 49.2149 34.5768C51.8042 32.9 51.7985 32.9114 53.6065 31.7594C52.9449 30.7327 52.5913 30.2593 52.1578 29.8202C50.6008 28.0806 48.4791 27.1852 45.0856 27.2537C44.4982 27.3278 43.9051 27.4076 43.3175 27.4818C41.6237 27.9095 40.0096 28.7993 39.0628 29.9913C36.2225 33.2137 37.0324 38.8544 40.4887 41.1757C43.8936 43.7308 48.8955 44.3126 49.5343 46.7023C50.1559 49.6282 47.3841 50.5749 44.6293 50.2384C42.5989 49.8164 41.4697 48.7841 40.2491 46.9076C38.002 48.208 38.002 48.208 35.6921 49.5369C36.2397 50.7346 36.8156 51.2765 37.734 52.3145C42.08 56.7232 52.9563 56.5065 54.907 49.8335C54.9867 49.6053 55.5115 48.0768 55.0894 45.7213ZM32.6179 27.6072H27.0058C27.0058 32.4551 26.983 37.2688 26.983 42.1167C26.983 45.2023 27.1427 48.0312 26.6408 48.8981C25.8195 50.6033 23.6921 50.3924 22.7225 50.0615C21.7359 49.5767 21.234 48.8866 20.6522 47.9114C20.4925 47.6319 20.3727 47.4152 20.3328 47.3981C18.81 48.3277 17.2928 49.263 15.77 50.1928C16.5286 51.7498 17.6464 53.1015 19.078 53.9798C21.2168 55.263 24.0913 55.6566 27.0971 54.9665C29.0533 54.3961 30.7415 53.2156 31.6255 51.419C32.9031 49.0635 32.6293 46.2118 32.6179 43.0578C32.6464 37.9133 32.6179 32.7688 32.6179 27.6072Z" fill="#323330"/>
</g>
<defs>
<clipPath id="clip0_192_2782">
<rect width="60" height="60" fill="white" transform="translate(0 0.03125)"/>
</clipPath>
</defs>
</svg>
