<svg width="60" height="61" viewBox="0 0 60 61" fill="none" xmlns="http://www.w3.org/2000/svg">
<g clip-path="url(#clip0_192_2777)">
<path fill-rule="evenodd" clip-rule="evenodd" d="M51.6503 33.3686C49.5507 33.3784 47.7343 33.8862 46.2109 34.6333C45.6493 33.52 45.0878 32.5483 44.9902 31.8208C44.8827 30.976 44.7558 30.4633 44.8827 29.4526C45.0097 28.4467 45.5956 27.0161 45.5956 26.8989C45.5859 26.7915 45.4687 26.2788 44.2577 26.2641C43.0517 26.2543 42.0068 26.4985 41.8896 26.8159C41.7724 27.1333 41.538 27.8608 41.3866 28.6079C41.1767 29.7114 38.9745 33.6127 37.7197 35.6635C37.3095 34.8676 36.9579 34.1645 36.8896 33.603C36.7822 32.7583 36.6552 32.2456 36.7822 31.2348C36.9091 30.229 37.495 28.7983 37.495 28.6811C37.4853 28.5737 37.3681 28.061 36.1572 28.0463C34.9511 28.0366 33.9062 28.2807 33.789 28.5981C33.6718 28.9155 33.5448 29.6626 33.2861 30.3901C33.0419 31.1176 30.1122 37.6313 29.3505 39.3305C28.9648 40.1997 28.623 40.8881 28.3788 41.3569C28.1347 41.8256 28.3691 41.3911 28.3447 41.4399C28.1347 41.8403 28.0175 42.06 28.0175 42.06V42.0698C27.8515 42.3627 27.6757 42.646 27.5976 42.646C27.539 42.646 27.4218 41.8598 27.622 40.7807C28.0566 38.52 29.1113 34.9897 29.0966 34.8627C29.0966 34.8042 29.2968 34.184 28.4179 33.8667C27.5634 33.5493 27.2558 34.0766 27.1874 34.0766C27.1191 34.0766 27.0605 34.2622 27.0605 34.2622C27.0605 34.2622 28.0077 30.2876 25.2441 30.2876C23.5107 30.2876 21.1181 32.1723 19.9364 33.896C19.1845 34.3061 17.5927 35.1752 15.9032 36.0981C15.2587 36.4497 14.5898 36.8256 13.9599 37.1626L13.8329 37.021C10.4784 33.4614 4.27727 30.9321 4.53606 26.1274C4.62883 24.3794 5.23918 19.7749 16.4452 14.1987C25.62 9.62837 32.9687 10.8833 34.248 13.6713C36.0644 17.6557 30.3222 25.0629 20.7812 26.1274C17.1484 26.5376 15.2392 25.1313 14.7558 24.604C14.2529 24.0522 14.1796 24.0278 13.9941 24.1352C13.6913 24.3012 13.8769 24.7895 13.9941 25.0825C14.2773 25.8198 15.4491 27.1333 17.4413 27.7876C19.1894 28.3637 23.4521 28.6762 28.6083 26.684C34.3847 24.4477 38.8964 18.2319 37.5732 13.0415C36.2255 7.76314 27.4609 6.02486 19.1747 8.96919C14.2431 10.727 8.89641 13.4711 5.05364 17.0698C0.483323 21.3325 -0.244216 25.0581 0.0585182 26.6059C1.12297 32.1284 8.73039 35.7221 11.7773 38.3833C11.6259 38.4663 11.4843 38.5493 11.3573 38.6176C9.83391 39.3696 4.03313 42.4018 2.57805 45.6147C0.937425 49.2475 2.83684 51.8647 4.10149 52.2163C8.0175 53.3051 12.0263 51.3471 14.1943 48.1245C16.3525 44.9018 16.0937 40.7172 15.0976 38.8081L15.0634 38.7397L16.2597 38.0366C17.0312 37.5776 17.7929 37.1577 18.4618 36.7963C18.0859 37.8168 17.8173 39.0229 17.6757 40.7807C17.5097 42.8413 18.3544 45.517 19.4677 46.5717C19.9609 47.0307 20.5468 47.0405 20.9081 47.0405C22.1972 47.0405 22.7831 45.976 23.4277 44.6967C24.2236 43.1391 24.9267 41.3325 24.9267 41.3325C24.9267 41.3325 24.0478 46.2202 26.4501 46.2202C27.329 46.2202 28.2079 45.0825 28.6083 44.4965V44.5063C28.6083 44.5063 28.6327 44.4721 28.6767 44.3891C28.7255 44.3159 28.7743 44.2426 28.8183 44.1645V44.1401C29.1698 43.5297 29.956 42.1381 31.1279 39.8286C32.6415 36.8501 34.0917 33.1245 34.0917 33.1245C34.0917 33.1245 34.2333 34.0376 34.6679 35.5366C34.9267 36.4252 35.4882 37.4018 35.9228 38.3491C35.5712 38.8422 35.3613 39.1206 35.3613 39.1206L35.371 39.1303C35.0878 39.5063 34.7753 39.9018 34.4433 40.3022C33.247 41.7329 31.8163 43.3588 31.6308 43.8276C31.4062 44.3793 31.455 44.7895 31.8896 45.1167C32.207 45.351 32.7685 45.3999 33.3642 45.351C34.4433 45.2827 35.1903 45.0092 35.5663 44.8481C36.1523 44.6381 36.8212 44.3208 37.4657 43.852C38.6376 42.9829 39.3505 41.7524 39.2821 40.1118C39.248 39.2085 38.955 38.3198 38.5888 37.4751C38.6962 37.3237 38.7988 37.1723 38.9062 37.0063C40.7568 34.3012 42.1874 31.3227 42.1874 31.3227C42.1874 31.3227 42.329 32.2358 42.7636 33.7348C42.9882 34.4965 43.4325 35.3266 43.828 36.1469C42.0947 37.5629 41.0058 39.2036 40.6298 40.2827C39.9364 42.2749 40.4784 43.1782 41.4989 43.3881C41.9579 43.4809 42.6122 43.271 43.1054 43.061C43.7157 42.8608 44.453 42.5239 45.1318 42.0161C46.3036 41.1469 47.4267 39.9409 47.3681 38.3149C47.3339 37.5629 47.1337 36.8256 46.8652 36.1225C48.3398 35.5122 50.2538 35.1606 52.6757 35.4536C57.8905 36.0639 58.9208 39.3208 58.7255 40.6782C58.5253 42.0356 57.4364 42.7876 57.0751 43.0219C56.7138 43.2465 56.5966 43.3247 56.6308 43.4907C56.6796 43.7348 56.8407 43.7251 57.1581 43.6762C57.5927 43.6079 59.9023 42.5629 59.995 40.0532C60.1366 36.8501 57.0751 33.3344 51.6503 33.3686ZM11.4306 46.9282C9.70696 48.8129 7.2802 49.5307 6.24992 48.9204C5.13664 48.2758 5.57121 45.4975 7.69035 43.4956C8.97942 42.2749 10.6542 41.1518 11.7577 40.4585C12.0019 40.3071 12.3779 40.0825 12.8222 39.8139C12.8905 39.7651 12.9394 39.7456 12.9394 39.7456C13.0224 39.6967 13.1152 39.6381 13.2079 39.5795C13.9941 42.4409 13.247 44.9458 11.4306 46.9282ZM24.0282 38.3637C23.4325 39.8286 22.163 43.5932 21.4013 43.3784C20.747 43.2026 20.3466 40.3559 21.2743 37.5434C21.7431 36.1274 22.7392 34.4379 23.3251 33.7836C24.2724 32.729 25.3075 32.3774 25.5614 32.812C25.8691 33.3686 24.4042 37.4458 24.0282 38.3637ZM34.4238 43.3295C34.165 43.4565 33.9306 43.5542 33.828 43.4809C33.745 43.4321 33.9355 43.2563 33.9355 43.2563C33.9355 43.2563 35.2343 41.8598 35.7519 41.2153C36.0448 40.8393 36.3964 40.4047 36.7724 39.9165V40.0581C36.7675 41.7475 35.1513 42.8754 34.4238 43.3295ZM42.4413 41.5034C42.2558 41.3618 42.2753 40.9272 42.9101 39.5698C43.1542 39.0327 43.7206 38.1293 44.6923 37.2749C44.8095 37.6264 44.8779 37.9682 44.8681 38.2807C44.8534 40.3901 43.3544 41.1762 42.4413 41.5034Z" fill="#CF649A"/>
</g>
<defs>
<clipPath id="clip0_192_2777">
<rect width="60" height="44.9756" fill="white" transform="translate(0 7.54297)"/>
</clipPath>
</defs>
</svg>
