<svg width="156" height="24" viewBox="0 0 156 24" fill="none" xmlns="http://www.w3.org/2000/svg">
<path d="M11.4034 7.05682C11.3295 6.75568 11.2131 6.49148 11.054 6.2642C10.8949 6.03125 10.696 5.83523 10.4574 5.67614C10.2244 5.51136 9.9517 5.3892 9.6392 5.30966C9.33239 5.22443 8.99432 5.18182 8.625 5.18182C7.82955 5.18182 7.15057 5.37216 6.58807 5.75284C6.03125 6.13352 5.60511 6.68182 5.30966 7.39773C5.01989 8.11364 4.875 8.97727 4.875 9.98864C4.875 11.0114 5.0142 11.8864 5.29261 12.6136C5.57102 13.3409 5.9858 13.8977 6.53693 14.2841C7.08807 14.6705 7.77273 14.8636 8.59091 14.8636C9.3125 14.8636 9.91193 14.7585 10.3892 14.5483C10.8722 14.3381 11.233 14.0398 11.4716 13.6534C11.7102 13.267 11.8295 12.8125 11.8295 12.2898L12.6477 12.375H8.65909V9H16.3977V11.4205C16.3977 13.0114 16.0597 14.3722 15.3835 15.5028C14.7131 16.6278 13.7869 17.4915 12.6051 18.0938C11.429 18.6903 10.0795 18.9886 8.55682 18.9886C6.85795 18.9886 5.36648 18.6278 4.08239 17.9062C2.7983 17.1847 1.79545 16.1562 1.07386 14.821C0.357955 13.4858 0 11.8977 0 10.0568C0 8.61364 0.21875 7.33523 0.65625 6.22159C1.09943 5.10795 1.71307 4.16761 2.49716 3.40057C3.28125 2.62784 4.1875 2.04545 5.21591 1.65341C6.24432 1.25568 7.34659 1.05682 8.52273 1.05682C9.55682 1.05682 10.517 1.20455 11.4034 1.5C12.2955 1.78977 13.0824 2.20454 13.7642 2.74432C14.4517 3.27841 15.0057 3.91193 15.4261 4.64489C15.8466 5.37784 16.1023 6.18182 16.1932 7.05682H11.4034Z" fill="#D92950"/>
<path d="M25.7632 18.75H19.0472V1.29545H25.695C27.4904 1.29545 29.0416 1.64489 30.3484 2.34375C31.6609 3.03693 32.6722 4.03693 33.3825 5.34375C34.0984 6.64489 34.4563 8.20455 34.4563 10.0227C34.4563 11.8409 34.1012 13.4034 33.391 14.7102C32.6808 16.0114 31.6751 17.0114 30.374 17.7102C29.0728 18.4034 27.5359 18.75 25.7632 18.75ZM23.7859 14.7273H25.5927C26.4563 14.7273 27.1921 14.5881 27.8001 14.3097C28.4137 14.0312 28.8796 13.5511 29.1978 12.8693C29.5217 12.1875 29.6836 11.2386 29.6836 10.0227C29.6836 8.80682 29.5188 7.85795 29.1893 7.17614C28.8654 6.49432 28.3882 6.0142 27.7575 5.73579C27.1325 5.45739 26.3654 5.31818 25.4563 5.31818H23.7859V14.7273Z" fill="#D92950"/>
<path d="M40.5213 18.75H35.4077L41.1691 1.29545H47.6463L53.4077 18.75H48.2941L44.4759 6.10227H44.3395L40.5213 18.75ZM39.5668 11.8636H49.1804V15.4091H39.5668V11.8636Z" fill="#D92950"/>
<path d="M66.2334 18.75V22.0909H54.4038V18.75H66.2334Z" fill="#D92950"/>
<path d="M67.8047 18.75V1.29545H75.3388C76.6343 1.29545 77.7678 1.55114 78.7394 2.0625C79.711 2.57386 80.4667 3.29261 81.0065 4.21875C81.5462 5.14489 81.8161 6.22727 81.8161 7.46591C81.8161 8.71591 81.5377 9.7983 80.9809 10.7131C80.4297 11.6278 79.6542 12.3324 78.6542 12.8267C77.6599 13.321 76.4979 13.5682 75.1684 13.5682H70.6684V9.88636H74.2138C74.7707 9.88636 75.2451 9.78977 75.6371 9.59659C76.0349 9.39773 76.3388 9.11648 76.5491 8.75284C76.765 8.3892 76.8729 7.96023 76.8729 7.46591C76.8729 6.96591 76.765 6.53977 76.5491 6.1875C76.3388 5.82955 76.0349 5.55682 75.6371 5.36932C75.2451 5.17614 74.7707 5.07954 74.2138 5.07954H72.5434V18.75H67.8047Z" fill="#1F2325" fill-opacity="0.9"/>
<path d="M84.0629 18.75V5.65909H88.6311V8.14773H88.7675C89.0061 7.22727 89.3839 6.55398 89.901 6.12784C90.4237 5.7017 91.0345 5.48864 91.7334 5.48864C91.9379 5.48864 92.1396 5.50568 92.3385 5.53977C92.543 5.56818 92.7391 5.6108 92.9266 5.66761V9.68182C92.6936 9.60227 92.4067 9.54261 92.0658 9.50284C91.7249 9.46307 91.4322 9.44318 91.1879 9.44318C90.7277 9.44318 90.3129 9.5483 89.9436 9.75852C89.58 9.96307 89.293 10.2528 89.0828 10.6278C88.8726 10.9972 88.7675 11.4318 88.7675 11.9318V18.75H84.0629Z" fill="#1F2325" fill-opacity="0.9"/>
<path d="M100.466 18.9886C99.0455 18.9886 97.8296 18.7074 96.8183 18.1449C95.8069 17.5767 95.0313 16.7869 94.4916 15.7756C93.9518 14.7585 93.6819 13.5795 93.6819 12.2386C93.6819 10.8977 93.9518 9.72159 94.4916 8.71023C95.0313 7.69318 95.8069 6.90341 96.8183 6.34091C97.8296 5.77273 99.0455 5.48864 100.466 5.48864C101.886 5.48864 103.102 5.77273 104.114 6.34091C105.125 6.90341 105.901 7.69318 106.44 8.71023C106.98 9.72159 107.25 10.8977 107.25 12.2386C107.25 13.5795 106.98 14.7585 106.44 15.7756C105.901 16.7869 105.125 17.5767 104.114 18.1449C103.102 18.7074 101.886 18.9886 100.466 18.9886ZM100.5 15.5114C100.898 15.5114 101.242 15.3778 101.531 15.1108C101.821 14.8438 102.046 14.4631 102.205 13.9688C102.364 13.4744 102.443 12.8864 102.443 12.2045C102.443 11.517 102.364 10.929 102.205 10.4403C102.046 9.94602 101.821 9.56534 101.531 9.2983C101.242 9.03125 100.898 8.89773 100.5 8.89773C100.08 8.89773 99.7188 9.03125 99.4177 9.2983C99.1166 9.56534 98.8864 9.94602 98.7274 10.4403C98.5683 10.929 98.4887 11.517 98.4887 12.2045C98.4887 12.8864 98.5683 13.4744 98.7274 13.9688C98.8864 14.4631 99.1166 14.8438 99.4177 15.1108C99.7188 15.3778 100.08 15.5114 100.5 15.5114Z" fill="#1F2325" fill-opacity="0.9"/>
<path d="M109.599 5.65909H114.304V19.1932C114.304 20.3409 114.062 21.2386 113.579 21.8864C113.102 22.5341 112.432 22.9915 111.568 23.2585C110.704 23.5256 109.696 23.6591 108.542 23.6591C108.372 23.6591 108.216 23.6562 108.074 23.6506C107.926 23.6449 107.764 23.6364 107.588 23.625V20.1477C107.701 20.1591 107.801 20.1676 107.886 20.1733C107.966 20.179 108.048 20.1818 108.133 20.1818C108.696 20.1818 109.079 20.0938 109.284 19.9176C109.494 19.7472 109.599 19.4716 109.599 19.0909V5.65909ZM111.951 4.29545C111.315 4.29545 110.77 4.08523 110.315 3.66477C109.861 3.24432 109.633 2.73864 109.633 2.14773C109.633 1.55682 109.861 1.05114 110.315 0.630681C110.77 0.210227 111.315 0 111.951 0C112.593 0 113.139 0.210227 113.588 0.630681C114.042 1.05114 114.27 1.55682 114.27 2.14773C114.27 2.73864 114.042 3.24432 113.588 3.66477C113.139 4.08523 112.593 4.29545 111.951 4.29545Z" fill="#1F2325" fill-opacity="0.9"/>
<path d="M123.413 18.9886C122.016 18.9886 120.811 18.7216 119.8 18.1875C118.794 17.6477 118.019 16.875 117.473 15.8693C116.933 14.858 116.663 13.6477 116.663 12.2386C116.663 10.8864 116.936 9.70455 117.482 8.69318C118.027 7.68182 118.797 6.89489 119.791 6.33239C120.786 5.76989 121.959 5.48864 123.311 5.48864C124.3 5.48864 125.195 5.64205 125.996 5.94886C126.797 6.25568 127.482 6.7017 128.05 7.28693C128.618 7.86648 129.055 8.57102 129.362 9.40057C129.669 10.2301 129.823 11.1648 129.823 12.2045V13.2955H118.129V10.7045H125.493C125.487 10.3295 125.391 10 125.203 9.71591C125.021 9.42614 124.774 9.2017 124.462 9.04261C124.155 8.87784 123.806 8.79545 123.413 8.79545C123.033 8.79545 122.683 8.87784 122.365 9.04261C122.047 9.2017 121.791 9.4233 121.598 9.70739C121.411 9.99148 121.311 10.3239 121.3 10.7045V13.5C121.3 13.9205 121.388 14.2955 121.564 14.625C121.74 14.9545 121.993 15.2131 122.323 15.4006C122.652 15.5881 123.05 15.6818 123.516 15.6818C123.84 15.6818 124.135 15.6364 124.402 15.5455C124.675 15.4545 124.908 15.3239 125.101 15.1534C125.294 14.9773 125.436 14.767 125.527 14.5227H129.823C129.675 15.4318 129.325 16.2216 128.774 16.892C128.223 17.5568 127.493 18.0739 126.584 18.4432C125.681 18.8068 124.624 18.9886 123.413 18.9886Z" fill="#1F2325" fill-opacity="0.9"/>
<path d="M138.489 18.9886C137.069 18.9886 135.853 18.7074 134.841 18.1449C133.83 17.5767 133.054 16.7869 132.515 15.7756C131.975 14.7585 131.705 13.5795 131.705 12.2386C131.705 10.8977 131.975 9.72159 132.515 8.71023C133.054 7.69318 133.83 6.90341 134.841 6.34091C135.853 5.77273 137.069 5.48864 138.489 5.48864C139.773 5.48864 140.884 5.72159 141.822 6.1875C142.765 6.64773 143.495 7.30114 144.012 8.14773C144.529 8.98864 144.79 9.97727 144.796 11.1136H140.432C140.37 10.4261 140.171 9.90341 139.836 9.54545C139.506 9.18182 139.08 9 138.557 9C138.148 9 137.79 9.11932 137.483 9.35795C137.177 9.59091 136.938 9.94602 136.768 10.4233C136.597 10.8949 136.512 11.4886 136.512 12.2045C136.512 12.9205 136.597 13.517 136.768 13.9943C136.938 14.4659 137.177 14.821 137.483 15.0597C137.79 15.2926 138.148 15.4091 138.557 15.4091C138.904 15.4091 139.211 15.3295 139.478 15.1705C139.745 15.0057 139.961 14.767 140.125 14.4545C140.296 14.1364 140.398 13.75 140.432 13.2955H144.796C144.779 14.4489 144.515 15.4545 144.003 16.3125C143.492 17.1648 142.768 17.8239 141.83 18.2898C140.898 18.7557 139.785 18.9886 138.489 18.9886Z" fill="#1F2325" fill-opacity="0.9"/>
<path d="M154.984 5.65909V9.06818H146.359V5.65909H154.984ZM148.029 2.52273H152.734V14.5398C152.734 14.7216 152.765 14.875 152.828 15C152.89 15.1193 152.987 15.2102 153.117 15.2727C153.248 15.3295 153.416 15.358 153.62 15.358C153.762 15.358 153.927 15.3409 154.114 15.3068C154.308 15.2727 154.45 15.2443 154.541 15.2216L155.222 18.5284C155.012 18.5909 154.711 18.6676 154.319 18.7585C153.933 18.8494 153.472 18.9091 152.938 18.9375C151.859 18.9943 150.953 18.8835 150.22 18.6051C149.487 18.321 148.936 17.875 148.566 17.267C148.197 16.6591 148.018 15.8977 148.029 14.983V2.52273Z" fill="#1F2325" fill-opacity="0.9"/>
</svg>
